<svg width="26" height="26" viewBox="0 0 26 26" fill="none" xmlns="http://www.w3.org/2000/svg">
<path d="M23.8139 12.9597C23.8139 18.8224 18.8694 23.6076 12.7293 23.6076C6.58922 23.6076 1.64478 18.8224 1.64478 12.9597C1.64478 7.09689 6.58922 2.31171 12.7293 2.31171C18.8694 2.31171 23.8139 7.09689 23.8139 12.9597Z" stroke="#000000" style="mix-blend-mode:screen"/>
<path d="M5.53437 13.7071C5.38229 13.7071 5.23643 13.7606 5.12889 13.8557C5.02135 13.9508 4.96094 14.0798 4.96094 14.2144V15.8713C4.96094 16.0059 5.02135 16.1349 5.12889 16.23C5.23643 16.3251 5.38229 16.3786 5.53437 16.3786C5.68646 16.3786 5.83231 16.3251 5.93985 16.23C6.04739 16.1349 6.10781 16.0059 6.10781 15.8713V14.2144C6.10781 14.0798 6.04739 13.9508 5.93985 13.8557C5.83231 13.7606 5.68646 13.7071 5.53437 13.7071Z" fill="#000000" style="mix-blend-mode:screen"/>
<path d="M7.82811 12.5912C7.67603 12.5912 7.53017 12.6447 7.42263 12.7398C7.31509 12.8349 7.25468 12.9639 7.25468 13.0985V16.48C7.25468 16.6145 7.31509 16.7435 7.42263 16.8387C7.53017 16.9338 7.67603 16.9872 7.82811 16.9872C7.9802 16.9872 8.12605 16.9338 8.23359 16.8387C8.34113 16.7435 8.40155 16.6145 8.40155 16.48V13.0985C8.40155 12.9639 8.34113 12.8349 8.23359 12.7398C8.12605 12.6447 7.9802 12.5912 7.82811 12.5912Z" fill="#000000" style="mix-blend-mode:screen"/>
<path d="M10.1219 10.9004C9.96977 10.9004 9.82391 10.9539 9.71637 11.049C9.60883 11.1441 9.54842 11.2732 9.54842 11.4077V16.48C9.54842 16.6145 9.60883 16.7435 9.71637 16.8387C9.82391 16.9338 9.96977 16.9872 10.1219 16.9872C10.2739 16.9872 10.4198 16.9338 10.5273 16.8387C10.6349 16.7435 10.6953 16.6145 10.6953 16.48V11.4077C10.6953 11.2732 10.6349 11.1441 10.5273 11.049C10.4198 10.9539 10.2739 10.9004 10.1219 10.9004Z" fill="#000000" style="mix-blend-mode:screen"/>
<path d="M12.4156 9.54783C12.2635 9.54783 12.1177 9.60127 12.0101 9.69639C11.9026 9.79151 11.8422 9.92053 11.8422 10.0551V16.48C11.8422 16.6145 11.9026 16.7435 12.0101 16.8387C12.1177 16.9338 12.2635 16.9872 12.4156 16.9872C12.5677 16.9872 12.7135 16.9338 12.8211 16.8387C12.9286 16.7435 12.989 16.6145 12.989 16.48V10.0551C12.989 9.92053 12.9286 9.79151 12.8211 9.69639C12.7135 9.60127 12.5677 9.54783 12.4156 9.54783Z" fill="#000000" style="mix-blend-mode:screen"/>
<path d="M18.8039 13.0718C18.6018 13.0743 18.4011 13.1016 18.2075 13.1528C18.3047 12.8726 18.3564 12.5817 18.3612 12.2887C18.3612 11.4579 17.9881 10.6612 17.324 10.0737C16.6599 9.48628 15.7592 9.15625 14.82 9.15625C14.5895 9.15914 14.3601 9.18438 14.1359 9.23152V16.9872H18.8039C19.3909 16.9872 19.9538 16.781 20.3689 16.4138C20.784 16.0467 21.0171 15.5487 21.0171 15.0295C21.0171 14.5103 20.784 14.0123 20.3689 13.6452C19.9538 13.278 19.3909 13.0718 18.8039 13.0718Z" fill="#000000" style="mix-blend-mode:screen"/>
</svg>
