<svg width="27" height="26" viewBox="0 0 27 26" fill="none" xmlns="http://www.w3.org/2000/svg">
<path d="M24.5553 12.8051C24.5553 18.6678 19.6109 23.453 13.4708 23.453C7.33068 23.453 2.38623 18.6678 2.38623 12.8051C2.38623 6.94229 7.33068 2.1571 13.4708 2.1571C19.6109 2.1571 24.5553 6.94229 24.5553 12.8051Z" stroke="#FFE459" style="mix-blend-mode:screen"/>
<path d="M13.2786 6.91425C11.5597 6.91425 11.3442 6.92105 10.6691 6.94984C9.99543 6.97857 9.53535 7.07854 9.13274 7.22475C8.71655 7.37589 8.36359 7.57812 8.01173 7.90691C7.65988 8.23571 7.44347 8.56553 7.28172 8.95445C7.12525 9.33064 7.01828 9.76057 6.98752 10.3901C6.95672 11.0209 6.94946 11.2223 6.94946 12.8285C6.94946 14.4348 6.95672 14.6362 6.98752 15.267C7.01828 15.8965 7.12525 16.3264 7.28172 16.7026C7.44347 17.0915 7.65988 17.4214 8.01173 17.7502C8.36359 18.079 8.71655 18.2812 9.13274 18.4323C9.53535 18.5785 9.99543 18.6785 10.6691 18.7072C11.3442 18.736 11.5597 18.7428 13.2786 18.7428C14.9975 18.7428 15.213 18.736 15.8881 18.7072C16.5617 18.6785 17.0218 18.5785 17.4244 18.4323C17.8406 18.2812 18.1936 18.079 18.5454 17.7502C18.8973 17.4214 19.1137 17.0915 19.2754 16.7026C19.4319 16.3264 19.5389 15.8965 19.5696 15.267C19.6004 14.6362 19.6077 14.4348 19.6077 12.8285C19.6077 11.2223 19.6004 11.0209 19.5696 10.3901C19.5389 9.76057 19.4319 9.33064 19.2754 8.95445C19.1137 8.56553 18.8973 8.23571 18.5454 7.90691C18.1936 7.57812 17.8406 7.37589 17.4244 7.22475C17.0218 7.07854 16.5617 6.97857 15.8881 6.94984C15.213 6.92105 14.9975 6.91425 13.2786 6.91425ZM13.2786 7.9799C14.9685 7.9799 15.1687 7.98591 15.8361 8.01437C16.4532 8.04069 16.7883 8.13703 17.0113 8.21801C17.3067 8.32529 17.5176 8.45348 17.739 8.66043C17.9605 8.86737 18.0977 9.06441 18.2125 9.34045C18.2992 9.54886 18.4023 9.86202 18.4304 10.4387C18.4609 11.0623 18.4673 11.2494 18.4673 12.8285C18.4673 14.4077 18.4609 14.5948 18.4304 15.2184C18.4023 15.795 18.2992 16.1082 18.2125 16.3166C18.0977 16.5927 17.9605 16.7897 17.739 16.9966C17.5176 17.2036 17.3067 17.3318 17.0113 17.4391C16.7883 17.5201 16.4532 17.6164 15.8361 17.6427C15.1688 17.6711 14.9687 17.6772 13.2786 17.6772C11.5885 17.6772 11.3884 17.6711 10.7211 17.6427C10.104 17.6164 9.76887 17.5201 9.54585 17.4391C9.25042 17.3318 9.03959 17.2036 8.8181 16.9966C8.59663 16.7897 8.45946 16.5927 8.34467 16.3166C8.25799 16.1082 8.15489 15.795 8.12672 15.2184C8.09627 14.5948 8.08984 14.4077 8.08984 12.8285C8.08984 11.2494 8.09627 11.0623 8.12672 10.4387C8.15489 9.86202 8.25799 9.54886 8.34467 9.34045C8.45946 9.06441 8.59663 8.86737 8.8181 8.66043C9.03959 8.45348 9.25042 8.32529 9.54585 8.21801C9.76887 8.13703 10.104 8.04069 10.7211 8.01437C11.3885 7.98591 11.5886 7.9799 13.2786 7.9799Z" fill="#FFE459" style="mix-blend-mode:screen"/>
<path d="M13.2779 14.8001C12.1128 14.8001 11.1682 13.9175 11.1682 12.8287C11.1682 11.7399 12.1128 10.8573 13.2779 10.8573C14.4431 10.8573 15.3876 11.7399 15.3876 12.8287C15.3876 13.9175 14.4431 14.8001 13.2779 14.8001ZM13.2779 9.79164C11.4829 9.79164 10.0278 11.1514 10.0278 12.8287C10.0278 14.506 11.4829 15.8658 13.2779 15.8658C15.0729 15.8658 16.528 14.506 16.528 12.8287C16.528 11.1514 15.0729 9.79164 13.2779 9.79164Z" fill="#FFE459" style="mix-blend-mode:screen"/>
<path d="M17.4173 9.67139C17.4173 10.0634 17.0773 10.3811 16.6578 10.3811C16.2384 10.3811 15.8983 10.0634 15.8983 9.67139C15.8983 9.27942 16.2384 8.96169 16.6578 8.96169C17.0773 8.96169 17.4173 9.27942 17.4173 9.67139Z" fill="#FFE459" style="mix-blend-mode:screen"/>
</svg>
