<svg width="27" height="26" viewBox="0 0 27 26" fill="none" xmlns="http://www.w3.org/2000/svg">
<path d="M24.745 12.8051C24.745 18.6678 19.8006 23.453 13.6605 23.453C7.52037 23.453 2.57593 18.6678 2.57593 12.8051C2.57593 6.94229 7.52037 2.1571 13.6605 2.1571C19.8006 2.1571 24.745 6.94229 24.745 12.8051Z" stroke="#000000" style="mix-blend-mode:screen"/>
<path d="M18.7952 17.4286H8.77408C8.22142 17.4286 7.77197 16.9128 7.77197 16.2786V9.37858C7.77197 8.74435 8.22142 8.22858 8.77408 8.22858H18.7952C19.3478 8.22858 19.7973 8.74435 19.7973 9.37858V16.2786C19.7973 16.9128 19.3478 17.4286 18.7952 17.4286ZM8.77408 8.80358C8.49775 8.80358 8.27303 9.06146 8.27303 9.37858V16.2786C8.27303 16.5957 8.49775 16.8536 8.77408 16.8536H18.7952C19.0715 16.8536 19.2962 16.5957 19.2962 16.2786V9.37858C19.2962 9.06146 19.0715 8.80358 18.7952 8.80358H8.77408Z" fill="#000000" style="mix-blend-mode:screen"/>
<path d="M13.7846 14.321L9.38961 11.0576C9.27337 10.971 9.24005 10.7934 9.31521 10.66C9.39037 10.5266 9.54544 10.4886 9.66169 10.5746L13.7846 13.6362L17.9075 10.5746C18.0238 10.4886 18.1789 10.5266 18.254 10.66C18.3292 10.7934 18.2959 10.971 18.1796 11.0576L13.7846 14.321Z" fill="#000000" style="mix-blend-mode:screen"/>
<path d="M9.2754 15.7036C9.19448 15.7036 9.11481 15.6587 9.06671 15.5756C8.9898 15.4434 9.02086 15.2651 9.13611 15.1769L11.3909 13.4519C11.5061 13.3636 11.6617 13.3993 11.7383 13.5315C11.8152 13.6638 11.7842 13.842 11.6689 13.9303L9.41419 15.6553C9.37135 15.6878 9.323 15.7036 9.2754 15.7036Z" fill="#000000" style="mix-blend-mode:screen"/>
<path d="M18.2939 15.7036C18.2463 15.7036 18.1979 15.6878 18.1551 15.6553L15.9003 13.9303C15.7851 13.842 15.754 13.6638 15.8309 13.5315C15.9076 13.3993 16.0629 13.3636 16.1784 13.4519L18.4332 15.1769C18.5484 15.2651 18.5795 15.4434 18.5026 15.5756C18.4545 15.6587 18.3748 15.7036 18.2939 15.7036Z" fill="#000000" style="mix-blend-mode:screen"/>
</svg>
