<svg width="27" height="26" viewBox="0 0 27 26" fill="none" xmlns="http://www.w3.org/2000/svg">
<path d="M7.74984 18.2285H10.1809V10.5922H7.74984V18.2285ZM8.96788 9.70224C9.65893 9.70224 10.2157 9.18022 10.2157 8.53888C10.2157 7.89755 9.65893 7.3805 8.96788 7.3805C8.2818 7.3805 7.72001 7.89755 7.72001 8.53888C7.72001 9.18022 8.2818 9.70224 8.96788 9.70224ZM14.1595 13.8734C14.1644 13.0034 14.6715 12.4863 15.4421 12.4863C16.2127 12.4863 16.6701 12.9934 16.6651 13.8386V18.2285H19.0963V13.3613C19.1012 11.6412 18.0522 10.4927 16.4464 10.4927C15.3178 10.4927 14.4627 11.0645 14.1247 11.9941H14.0401V10.5922H11.7284V18.2285H14.1595V13.8734Z" fill="#FFE459" style="mix-blend-mode:screen"/>
<path d="M24.3654 12.8051C24.3654 18.6678 19.4209 23.453 13.2808 23.453C7.14073 23.453 2.19629 18.6678 2.19629 12.8051C2.19629 6.94229 7.14073 2.1571 13.2808 2.1571C19.4209 2.1571 24.3654 6.94229 24.3654 12.8051Z" stroke="#FFE459" style="mix-blend-mode:screen"/>
</svg>
