<svg width="27" height="26" viewBox="0 0 27 26" fill="none" xmlns="http://www.w3.org/2000/svg">
<path d="M24.1754 12.8051C24.1754 18.6678 19.231 23.453 13.0909 23.453C6.95079 23.453 2.00635 18.6678 2.00635 12.8051C2.00635 6.94229 6.95079 2.1571 13.0909 2.1571C19.231 2.1571 24.1754 6.94229 24.1754 12.8051Z" stroke="#FFE459" style="mix-blend-mode:screen"/>
<path d="M19.7974 10.4136C19.7974 10.2986 19.6234 9.37858 19.2173 8.97608C18.6951 8.40108 18.115 8.34358 17.8249 8.34358H17.7668C15.9683 8.22858 13.2995 8.22858 13.2415 8.22858C13.2415 8.22858 10.5147 8.22858 8.71621 8.34358H8.65819C8.3681 8.34358 7.78794 8.40108 7.26578 8.97608C6.85966 9.43608 6.68561 10.3561 6.68561 10.4711C6.68561 10.5286 6.56958 11.5636 6.56958 12.6561V13.6336C6.56958 14.7261 6.68561 15.7611 6.68561 15.8186C6.68561 15.9336 6.85966 16.8536 7.26578 17.2561C7.72992 17.7736 8.31009 17.8311 8.65819 17.8886C8.71621 17.8886 8.77422 17.8886 8.83224 17.8886C9.87655 18.0036 13.0675 18.0036 13.1835 18.0036C13.1835 18.0036 15.9103 18.0036 17.7088 17.8886H17.7668C18.0569 17.8311 18.6371 17.7736 19.1593 17.2561C19.5654 16.7961 19.7394 15.8761 19.7394 15.7611C19.7394 15.7036 19.8555 14.6686 19.8555 13.5761V12.5986C19.9135 11.5636 19.7974 10.4711 19.7974 10.4136ZM15.5042 13.2311L12.0232 15.0711C11.9652 15.0711 11.9652 15.1286 11.9071 15.1286C11.8491 15.1286 11.7911 15.1286 11.7911 15.0711C11.7331 15.0136 11.6751 14.9561 11.6751 14.8411V11.1036C11.6751 10.9886 11.7331 10.9311 11.7911 10.8736C11.8491 10.8161 11.9652 10.8161 12.0812 10.8736L15.5622 12.7136C15.6782 12.7711 15.7363 12.8286 15.7363 12.9436C15.7363 13.0586 15.6202 13.1736 15.5042 13.2311Z" fill="#FFE664" style="mix-blend-mode:screen"/>
</svg>
