<svg width="26" height="26" viewBox="0 0 26 26" fill="none" xmlns="http://www.w3.org/2000/svg">
<path d="M23.9855 12.8051C23.9855 18.6678 19.041 23.453 12.9009 23.453C6.76085 23.453 1.81641 18.6678 1.81641 12.8051C1.81641 6.94229 6.76085 2.1571 12.9009 2.1571C19.041 2.1571 23.9855 6.94229 23.9855 12.8051Z" stroke="#000000" style="mix-blend-mode:screen"/>
<path d="M14.6123 13.6144C14.8109 13.6144 14.9756 13.7055 15.1188 13.8855C15.2606 14.0669 15.3359 14.288 15.3359 14.5529C15.3359 14.8165 15.2606 15.0396 15.1188 15.219C14.9763 15.4004 14.8109 15.49 14.6123 15.49C14.407 15.49 14.2268 15.4004 14.0843 15.219C13.9426 15.0396 13.8672 14.8165 13.8672 14.5529C13.8672 14.288 13.9426 14.0669 14.0843 13.8855C14.2261 13.7048 14.4063 13.6144 14.6123 13.6144ZM17.1524 11.1782C17.7032 11.7334 17.9831 12.4069 17.9831 13.1996C17.9831 13.7116 17.9196 14.1737 17.7918 14.5844C17.6626 14.9931 17.5009 15.3264 17.3089 15.5831C17.114 15.8405 16.8747 16.0657 16.5897 16.2601C16.3047 16.4559 16.0426 16.5969 15.8033 16.6866C15.5633 16.7769 15.2901 16.8461 14.983 16.896C14.675 16.9446 14.4469 16.972 14.2867 16.9802C14.1294 16.9864 13.9632 16.9898 13.7808 16.9898C13.7402 16.9898 13.6014 16.9926 13.3769 17.0001C13.1547 17.009 12.9634 17.011 12.8143 17.011C12.6651 17.011 12.4739 17.009 12.2516 17.0001C12.0272 16.9926 11.8883 16.9898 11.8477 16.9898C11.6661 16.9898 11.4992 16.9864 11.3419 16.9802C11.181 16.972 10.9535 16.9446 10.6456 16.896C10.3333 16.8468 10.0652 16.7769 9.82526 16.6866C9.58602 16.5969 9.32315 16.4559 9.0396 16.2601C8.75384 16.0657 8.5146 15.8405 8.31966 15.5831C8.12694 15.3264 7.96597 14.9931 7.83675 14.5844C7.70901 14.1737 7.64551 13.7116 7.64551 13.1996C7.64551 12.4069 7.92536 11.7327 8.4762 11.1782C8.41566 11.1501 8.41344 10.8722 8.4703 10.3451C8.51682 9.81738 8.63791 9.33068 8.8358 8.88574C9.52547 8.95351 10.3791 9.31631 11.3988 9.96797C11.7429 9.88652 12.2118 9.84271 12.8143 9.84271C13.4434 9.84271 13.9152 9.88652 14.2305 9.96866C14.695 9.67774 15.1388 9.44089 15.5633 9.26086C15.9946 9.0822 16.3054 8.9761 16.5004 8.94803L16.7928 8.88643C16.9921 9.33068 17.1132 9.81738 17.159 10.3458C17.2151 10.8722 17.2129 11.1501 17.1524 11.1782ZM12.8364 16.5312C14.0829 16.5312 15.0177 16.3929 15.6579 16.1157C16.2892 15.8391 16.6119 15.2682 16.6119 14.4071C16.6119 13.9074 16.4103 13.4898 16.0049 13.1558C15.7996 12.9758 15.5523 12.8649 15.2746 12.8231C14.9977 12.7814 14.5739 12.7814 14.0046 12.8231C13.4368 12.8656 13.0461 12.8847 12.8364 12.8847C12.5522 12.8847 12.2457 12.8724 11.8625 12.8443C11.4785 12.817 11.1773 12.7998 10.9594 12.791C10.7423 12.7848 10.5097 12.8094 10.252 12.8649C9.9973 12.921 9.7876 13.0182 9.6222 13.1558C9.23749 13.4768 9.03886 13.893 9.03886 14.4071C9.03886 15.2682 9.35342 15.8391 9.98401 16.1157C10.6116 16.3929 11.5442 16.5312 12.7914 16.5312H12.8364ZM11.0392 13.6144C11.2371 13.6144 11.4025 13.7055 11.545 13.8855C11.6868 14.0669 11.7621 14.288 11.7621 14.5529C11.7621 14.8165 11.6868 15.0396 11.545 15.219C11.4032 15.4004 11.2371 15.49 11.0392 15.49C10.8332 15.49 10.6537 15.4004 10.5105 15.219C10.3687 15.0396 10.2934 14.8165 10.2934 14.5529C10.2934 14.288 10.3687 14.0669 10.5105 13.8855C10.653 13.7048 10.8324 13.6144 11.0392 13.6144Z" fill="#000000" style="mix-blend-mode:screen"/>
</svg>
